<?xml version="1.0" encoding="UTF-8"?>
<svg version="1.1" xmlns="http://www.w3.org/2000/svg" width="411" height="164">
<path d="M0 0 C1.14248199 -0.00014603 2.28496399 -0.00029205 3.46206665 -0.0004425 C7.21162868 0.00025021 10.96114008 0.00801243 14.71069336 0.01586914 C17.32099887 0.0177356 19.93130473 0.01915843 22.54161072 0.02015686 C28.69307312 0.02325376 34.84451757 0.03144483 40.9959721 0.04150635 C48.00450928 0.0527187 55.01304737 0.0581908 62.02159131 0.06320179 C76.42708379 0.07362897 90.83255687 0.09195384 105.23803711 0.11352539 C105.23803711 9.68352539 105.23803711 19.25352539 105.23803711 29.11352539 C107.71303711 26.60758789 107.71303711 26.60758789 110.23803711 24.05102539 C114.09925974 20.16649101 118.01334856 16.4378409 122.24194336 12.94946289 C124.37160748 11.07925004 124.37160748 11.07925004 126.39038086 8.46508789 C129.97749563 4.20352392 132.705848 0.98458202 138.43334961 0.47680664 C142.40350322 0.38526184 146.29409031 0.67313431 150.23803711 1.11352539 C148.78647817 4.44931052 146.95877773 6.63851142 144.38647461 9.19555664 C143.6169043 9.96319336 142.84733398 10.73083008 142.05444336 11.52172852 C141.2487793 12.31514648 140.44311523 13.10856445 139.61303711 13.92602539 C138.83057617 14.7078418 138.04811523 15.4896582 137.24194336 16.29516602 C131.05128786 22.43962259 124.72754489 28.22882163 117.77319336 33.49633789 C110.20975052 39.61204208 105.06748952 44.6582379 103.91772461 54.67211914 C103.53194302 61.83513296 103.70576187 68.95884083 104.23803711 76.11352539 C100.60803711 76.11352539 96.97803711 76.11352539 93.23803711 76.11352539 C93.23803711 62.25352539 93.23803711 48.39352539 93.23803711 34.11352539 C79.0683892 34.17652481 64.89895687 34.25200476 50.72950172 34.3492403 C44.14951434 34.39389999 37.56958826 34.43316606 30.98950195 34.45996094 C24.63515035 34.48603745 18.28103517 34.52647123 11.92683029 34.57671165 C9.50687992 34.59335086 7.08688868 34.60488342 4.66688919 34.6111393 C1.26799188 34.62081218 -2.1303046 34.64891075 -5.52905273 34.68115234 C-7.01799545 34.67899971 -7.01799545 34.67899971 -8.53701782 34.67680359 C-17.18863128 34.7922883 -26.07747172 36.22480698 -32.76196289 42.11352539 C-35.80825611 46.55920956 -37.50697707 50.65008806 -36.76196289 56.11352539 C-35.81807692 59.41712629 -34.90750778 60.02809687 -31.88696289 61.80102539 C-27.2171725 63.76233735 -23.53416527 64.24414654 -18.45556641 64.28710938 C-16.53690514 64.30734413 -16.53690514 64.30734413 -14.57948303 64.32798767 C-13.89769548 64.33304762 -13.21590794 64.33810757 -12.51346016 64.34332085 C-10.3629696 64.35983337 -8.21264666 64.3830816 -6.0622406 64.40821838 C0.05135594 64.4786621 6.16502547 64.53863466 12.27880859 64.59033203 C16.02477777 64.62248085 19.77055967 64.66385225 23.51637459 64.71052742 C24.93184026 64.72634967 26.34734899 64.73876005 27.76287651 64.74743462 C42.67008785 64.84000939 60.14604025 65.04368039 71.51538086 76.08618164 C78.09432889 83.82875313 79.58944447 92.11908655 79.23803711 102.11352539 C77.61786635 119.133713 71.18865355 137.43302195 58.23803711 149.11352539 C37.7231045 164.51888574 16.00242181 164.41355243 -8.72290039 164.30883789 C-11.32605887 164.30510184 -13.92921876 164.30225767 -16.53237915 164.30026245 C-22.64828896 164.29344548 -28.76411471 164.27773509 -34.87999308 164.25756347 C-41.85236338 164.23507461 -48.82473748 164.22417866 -55.79713511 164.2141726 C-70.11878328 164.19336431 -84.44037048 164.1582702 -98.76196289 164.11352539 C-98.18834391 159.36010007 -97.55966872 154.80321765 -96.38696289 150.15258789 C-95.99250977 148.58057617 -95.99250977 148.58057617 -95.59008789 146.97680664 C-95.18016602 145.37385742 -95.18016602 145.37385742 -94.76196289 143.73852539 C-94.48868164 142.64668945 -94.21540039 141.55485352 -93.93383789 140.42993164 C-91.90270537 132.39501035 -91.90270537 132.39501035 -90.76196289 130.11352539 C-90.18365534 130.11113704 -89.60534779 130.10874868 -89.00951576 130.10628796 C-74.90250104 130.04701118 -60.795652 129.9713807 -46.68882179 129.87781048 C-39.866701 129.83294909 -33.04463129 129.79351254 -26.22241211 129.76708984 C-19.63465435 129.74155969 -13.04710732 129.70059035 -6.4594841 129.65033913 C-3.95021791 129.63369563 -1.44091226 129.62216573 1.06840134 129.61591148 C4.59182231 129.60624334 8.11466254 129.57815015 11.63793945 129.54589844 C13.1829866 129.54805107 13.1829866 129.54805107 14.75924683 129.55024719 C23.84458456 129.4331681 32.14252404 128.13021793 38.89819336 121.64477539 C42.17054591 117.9049439 42.75909264 113.88130238 42.61303711 109.04321289 C41.93296438 105.54367198 40.03875089 104.13957365 37.23803711 102.11352539 C32.56565862 100.51686759 28.47103522 99.86097321 23.546875 99.84228516 C22.2576564 99.83209854 20.96843781 99.82191193 19.64015198 99.81141663 C18.95992037 99.81047564 18.27968876 99.80953465 17.57884407 99.80856514 C15.41879292 99.80485976 13.25918422 99.78801587 11.09922791 99.76780701 C4.96158188 99.71283037 -1.1761304 99.68197064 -7.31396484 99.65722656 C-11.08290147 99.64112655 -14.85152851 99.61067274 -18.6203022 99.57246208 C-20.03887137 99.56099685 -21.45749648 99.55488339 -22.87611198 99.55478096 C-37.32646864 99.55336056 -54.76660272 99.05335864 -65.66040039 88.22680664 C-73.2598829 78.79232714 -73.82093999 68.75206651 -72.76196289 57.11352539 C-70.50235188 40.11662774 -62.58047457 24.16756812 -49.39086914 13.12915039 C-34.60395051 2.05670572 -17.90098007 -0.06061999 0 0 Z " fill="#F6F7F8" transform="translate(98.761962890625,-0.113525390625)"/>
<path d="M0 0 C2.00109536 0.00096917 4.0020548 -0.04183122 6.00268555 -0.08496094 C14.1474462 -0.10124232 20.48046489 0.66300697 27.20385742 5.50097656 C29.45776367 7.81738281 29.45776367 7.81738281 30.76635742 10.06347656 C31.44891602 11.17916016 31.44891602 11.17916016 32.14526367 12.31738281 C34.14796804 16.44842245 34.32667064 20.07687289 34.31738281 24.64648438 C34.31726952 26.50796112 34.31726952 26.50796112 34.31715393 28.40704346 C34.31204773 29.75606324 34.30683174 31.1050826 34.30151367 32.45410156 C34.29964767 33.83843942 34.29822462 35.22277794 34.29722595 36.6071167 C34.29341515 40.24358964 34.28359717 43.88002239 34.27252197 47.51647949 C34.26227692 51.23005632 34.25772171 54.94363966 34.25268555 58.65722656 C34.24197358 65.93849697 34.22438845 73.21972601 34.20385742 80.50097656 C29.91385742 80.50097656 25.62385742 80.50097656 21.20385742 80.50097656 C21.19451172 78.64375977 21.18516602 76.78654297 21.17553711 74.87304688 C21.14000416 68.73410019 21.08620309 62.59552589 21.01995468 56.4568367 C20.98045915 52.73520402 20.94828124 49.01380867 20.93286133 45.29199219 C20.91770781 41.69960386 20.88328719 38.10786788 20.8355484 34.51576996 C20.82072082 33.14591902 20.81281561 31.77597494 20.81197357 30.40604401 C20.80960671 28.48608024 20.7802593 26.56620727 20.74975586 24.64648438 C20.74087341 23.55394348 20.73199097 22.46140259 20.72283936 21.33575439 C20.08092344 17.82948782 18.98347248 16.66748642 16.20385742 14.50097656 C11.65837533 12.98581587 7.15290232 13.27559994 2.39135742 13.25097656 C0.913125 13.22003906 0.913125 13.22003906 -0.5949707 13.18847656 C-6.06280909 13.15909932 -10.11777274 13.31504537 -14.79614258 16.50097656 C-16.15180363 19.21229866 -15.95845343 21.38405654 -16.00146484 24.41943359 C-16.02141006 25.66056915 -16.04135529 26.90170471 -16.06190491 28.18045044 C-16.07888918 29.53989536 -16.09576799 30.89934161 -16.11254883 32.25878906 C-16.13311839 33.64599223 -16.15411486 35.03318914 -16.17552185 36.42037964 C-16.23074239 40.07325162 -16.28015169 43.72618016 -16.32836914 47.37915039 C-16.37858433 51.1060083 -16.43427029 54.83278397 -16.48950195 58.55957031 C-16.59708332 65.87330473 -16.69802278 73.18710797 -16.79614258 80.50097656 C-21.08614258 80.50097656 -25.37614258 80.50097656 -29.79614258 80.50097656 C-29.86423044 72.85069378 -29.91913733 65.20052579 -29.95157909 57.55001259 C-29.9671586 53.99660505 -29.98825329 50.44341763 -30.02246094 46.89013672 C-30.06164034 42.79425074 -30.07591542 38.69859182 -30.08911133 34.60253906 C-30.10459518 33.34172516 -30.12007904 32.08091125 -30.1360321 30.78189087 C-30.13772294 21.82385993 -29.78256036 13.46527258 -23.54614258 6.56347656 C-16.705896 -0.0650481 -9.07256172 -0.03093044 0 0 Z " fill="#F6F7F8" transform="translate(302.796142578125,83.4990234375)"/>
<path d="M0 0 C1.00417969 0.01353516 2.00835937 0.02707031 3.04296875 0.04101562 C5.48721748 0.07593346 7.9311848 0.12972153 10.375 0.1875 C10.375 4.1475 10.375 8.1075 10.375 12.1875 C9.10785156 12.22488281 7.84070313 12.26226562 6.53515625 12.30078125 C4.83591069 12.36649793 3.1366932 12.43294323 1.4375 12.5 C0.60669922 12.52255859 -0.22410156 12.54511719 -1.08007812 12.56835938 C-8.86151508 12.90141699 -17.13075724 14.23540367 -22.625 20.1875 C-27.69834578 26.45540088 -28.11396354 33.0466447 -28.1875 40.8125 C-28.20208252 41.70702881 -28.21666504 42.60155762 -28.23168945 43.52319336 C-28.1245812 50.5449507 -26.47873569 55.81253404 -21.9140625 61.2109375 C-21.09035156 61.87996094 -21.09035156 61.87996094 -20.25 62.5625 C-19.70601563 63.02398437 -19.16203125 63.48546875 -18.6015625 63.9609375 C-12.70167133 67.62213479 -6.48214114 67.59356858 0.25 67.8125 C1.22453125 67.85117188 2.1990625 67.88984375 3.203125 67.9296875 C5.59345683 68.023426 7.98420166 68.10652822 10.375 68.1875 C10.375 72.1475 10.375 76.1075 10.375 80.1875 C6.58254515 80.2963743 2.79327736 80.37524222 -1 80.4375 C-2.06089844 80.47101563 -3.12179687 80.50453125 -4.21484375 80.5390625 C-15.15682647 80.67331996 -23.4517645 77.46738185 -31.625 70.1875 C-39.75478368 61.60606167 -40.84743448 52.46725128 -40.9375 41.125 C-40.96650391 39.93455078 -40.99550781 38.74410156 -41.02539062 37.51757812 C-41.10435 26.46933954 -38.43041132 17.27105515 -30.625 9.1875 C-21.47929088 1.44612241 -11.70874644 -0.30483385 0 0 Z " fill="#F6F7F8" transform="translate(399.625,83.8125)"/>
<path d="M0 0 C3.96 0 7.92 0 12 0 C12 20.79 12 41.58 12 63 C25.86 63 39.72 63 54 63 C54 66.96 54 70.92 54 75 C36.18 75 18.36 75 0 75 C0 50.25 0 25.5 0 0 Z " fill="#F6F7F8" transform="translate(289,1)"/>
<path d="M0 0 C3.63 0 7.26 0 11 0 C11 20.79 11 41.58 11 63 C25.19 63 39.38 63 54 63 C54 66.96 54 70.92 54 75 C36.18 75 18.36 75 0 75 C0 50.25 0 25.5 0 0 Z " fill="#F6F7F8" transform="translate(357,1)"/>
<path d="M0 0 C4.82161578 -0.67042129 9.19539794 -0.88492129 14 0 C17.18386965 2.53639364 18.96536285 5.57902772 20.92822266 9.11523438 C22.62644633 12.10163228 24.50248949 14.97012195 26.3684082 17.85375977 C27.36541658 19.39814529 28.34988764 20.95070368 29.32104492 22.51147461 C29.993573 23.57893921 29.993573 23.57893921 30.6796875 24.66796875 C31.07913574 25.31016357 31.47858398 25.9523584 31.89013672 26.61401367 C32.43951904 27.3000769 32.43951904 27.3000769 33 28 C33.66 28 34.32 28 35 28 C36.4584804 26.07261997 37.7867743 24.15401308 39.09765625 22.12890625 C39.49198349 21.53198471 39.88631073 20.93506317 40.29258728 20.3200531 C41.55578596 18.40509374 42.80935625 16.48405101 44.0625 14.5625 C45.32115665 12.64586014 46.58172072 10.73049144 47.84312439 8.81565857 C48.62865961 7.62173473 49.41220812 6.42650104 50.19361877 5.22987366 C52.89232478 1.10767522 52.89232478 1.10767522 54 0 C56.53049402 -0.07313567 59.03304837 -0.09247527 61.5625 -0.0625 C62.62887695 -0.05573242 62.62887695 -0.05573242 63.71679688 -0.04882812 C65.47790013 -0.03700864 67.23896036 -0.01907263 69 0 C65.43830604 6.68691359 61.469176 13.00391978 57.23828125 19.28515625 C56.60641403 20.22685165 55.97454681 21.16854706 55.3235321 22.13877869 C53.99843932 24.11064844 52.67141101 26.08121879 51.3425293 28.05053711 C49.30070008 31.08000758 47.27028566 34.11692529 45.24023438 37.15429688 C43.9486032 39.07337891 42.65630944 40.99201521 41.36328125 42.91015625 C40.75494949 43.82249527 40.14661774 44.73483429 39.51985168 45.67481995 C38.67338326 46.92258461 38.67338326 46.92258461 37.80981445 48.19555664 C37.31415482 48.93230118 36.81849518 49.66904572 36.30781555 50.42811584 C35.87623642 50.94683762 35.44465729 51.46555939 35 52 C34.34 52 33.68 52 33 52 C31.68545532 50.3699646 31.68545532 50.3699646 30.17431641 48.05615234 C29.60677643 47.19460541 29.03923645 46.33305847 28.45449829 45.44540405 C27.84302948 44.50178009 27.23156067 43.55815613 26.6015625 42.5859375 C25.97019379 41.62354156 25.33882507 40.66114563 24.68832397 39.66958618 C22.66065899 36.57562509 20.64271827 33.47545486 18.625 30.375 C17.27147536 28.30556952 15.91731663 26.23655362 14.5625 24.16796875 C11.5249121 19.52843621 8.49244594 14.88562762 5.46954346 10.23651123 C4.19828609 8.30177336 2.89711266 6.39281584 1.58349609 4.48681641 C0 2 0 2 0 0 Z " fill="#F6F7F8" transform="translate(193,84)"/>
<path d="M0 0 C3.63 0 7.26 0 11 0 C11 24.75 11 49.5 11 75 C7.37 75 3.74 75 0 75 C0 50.25 0 25.5 0 0 Z " fill="#F6F7F8" transform="translate(264,1)"/>
<path d="M0 0 C3.50284274 1.16761425 4.08614879 2.09756022 6.22265625 5.015625 C6.83939209 5.84924561 7.45612793 6.68286621 8.09155273 7.54174805 C8.74196533 8.43547119 9.39237793 9.32919434 10.0625 10.25 C11.40812805 12.07475443 12.75448428 13.8989721 14.1015625 15.72265625 C15.0920459 17.0686792 15.0920459 17.0686792 16.10253906 18.44189453 C19.43945717 22.94063719 22.8911452 27.34850614 26.33984375 31.76171875 C28 34 28 34 28 35 C22.93424821 35.9342575 17.96177278 36.63821862 13 35 C8.43519746 31.64006208 5.3849251 26.67910257 2.31494141 21.99316406 C0.40410082 19.09674695 -1.67630581 16.34437346 -3.75 13.5625 C-4.83718539 12.04441796 -5.92220483 10.52476317 -7 9 C-5.27845212 5.23511958 -3.00765886 2.84936103 0 0 Z " fill="#F6F7F8" transform="translate(222,41)"/>
<path d="M0 0 C3.96 0 7.92 0 12 0 C12 5.94 12 11.88 12 18 C8.04 18 4.08 18 0 18 C0 12.06 0 6.12 0 0 Z " fill="#F6F7F8" transform="translate(221,146)"/>
</svg>
